HIERARCHY
ROOT Hips
{
	OFFSET 0.000000 0.000000 0.000000
	CHANNELS 6 Xposition Yposition Zposition Zrotation Yrotation Xrotation 
	JOINT LeftUpLeg_virtual
	{
		OFFSET 0.000000 0.000000 0.000000
		CHANNELS 3 Zrotation Yrotation Xrotation
		JOINT LeftUpLeg
		{
			OFFSET 10.205400 -3.823500 0.155100
			CHANNELS 3 Zrotation Yrotation Xrotation
			JOINT LeftLeg
			{
				OFFSET 0.708757 -12.982077 0.567790
				CHANNELS 3 Zrotation Yrotation Xrotation
				JOINT LeftFoot
				{
					OFFSET -0.708756 -10.717838 -2.184338
					CHANNELS 3 Zrotation Yrotation Xrotation
					JOINT LeftToeBase
					{
						OFFSET 0.108149 -7.191104 7.560241
						CHANNELS 3 Zrotation Yrotation Xrotation
						End Site
						{
							OFFSET 0.000000 0.000000 0.000000
						}
					}
				}
			}
		}
	}
	JOINT RightUpLeg_virtual
	{
		OFFSET 0.000000 0.000000 0.000000
		CHANNELS 3 Zrotation Yrotation Xrotation
		JOINT RightUpLeg
		{
			OFFSET -10.205400 -3.823500 0.005500
			CHANNELS 3 Zrotation Yrotation Xrotation
			JOINT RightLeg
			{
				OFFSET -0.708756 -12.982134 0.610632
				CHANNELS 3 Zrotation Yrotation Xrotation
				JOINT RightFoot
				{
					OFFSET 0.708754 -10.717769 -1.945823
					CHANNELS 3 Zrotation Yrotation Xrotation
					JOINT RightToeBase
					{
						OFFSET -0.108140 -7.191069 7.372968
						CHANNELS 3 Zrotation Yrotation Xrotation
						End Site
						{
							OFFSET 0.000000 0.000000 0.000000
						}
					}
				}
			}
		}
	}
	JOINT Spine_virtual
	{
		OFFSET 0.000000 0.000000 0.000000
		CHANNELS 3 Zrotation Yrotation Xrotation
		JOINT Spine
		{
			OFFSET 0.000000 6.876099 0.125700
			CHANNELS 3 Zrotation Yrotation Xrotation
			JOINT Spine1
			{
				OFFSET 0.000000 8.022060 0.146608
				CHANNELS 3 Zrotation Yrotation Xrotation
				JOINT Spine2
				{
					OFFSET 0.000000 9.168068 0.167552
					CHANNELS 3 Zrotation Yrotation Xrotation
					JOINT Neck_virtual
					{
						OFFSET 0.000000 0.000000 0.000000
						CHANNELS 3 Zrotation Yrotation Xrotation
						JOINT Neck
						{
							OFFSET 0.000000 10.314075 0.188496
							CHANNELS 3 Zrotation Yrotation Xrotation
							JOINT Head
							{
								OFFSET 0.000000 7.643700 -2.377400
								CHANNELS 3 Zrotation Yrotation Xrotation
								End Site
								{
									OFFSET 0.000000 0.000000 0.000000
								}
							}
						}
					}
					JOINT LeftShoulder_virtual
					{
						OFFSET 0.000000 0.000000 0.000000
						CHANNELS 3 Zrotation Yrotation Xrotation
						JOINT LeftShoulder
						{
							OFFSET 4.392200 8.824978 0.174984
							CHANNELS 3 Zrotation Yrotation Xrotation
							JOINT LeftArm
							{
								OFFSET 8.771219 -2.981674 -0.026999
								CHANNELS 3 Zrotation Yrotation Xrotation
								JOINT LeftForeArm
								{
									OFFSET 8.512804 0.000000 -0.000000
									CHANNELS 3 Zrotation Yrotation Xrotation
									JOINT LeftHand
									{
										OFFSET 18.484802 0.000000 -0.000000
										CHANNELS 3 Zrotation Yrotation Xrotation
										End Site
										{
											OFFSET 0.000000 0.000000 0.000000
										}
									}
								}
							}
						}
					}
					JOINT RightShoulder_virtual
					{
						OFFSET 0.000000 0.000000 0.000000
						CHANNELS 3 Zrotation Yrotation Xrotation
						JOINT RightShoulder
						{
							OFFSET -4.392200 8.824993 0.141379
							CHANNELS 3 Zrotation Yrotation Xrotation
							JOINT RightArm
							{
								OFFSET -8.771282 -2.981682 -0.094208
								CHANNELS 3 Zrotation Yrotation Xrotation
								JOINT RightForeArm
								{
									OFFSET -8.494598 0.000000 0.000000
									CHANNELS 3 Zrotation Yrotation Xrotation
									JOINT RightHand
									{
										OFFSET -18.483803 0.000000 0.000001
										CHANNELS 3 Zrotation Yrotation Xrotation
										End Site
										{
											OFFSET 0.000000 0.000000 0.000000
										}
									}
								}
							}
						}
					}
				}
			}
		}
	}
}
MOTION
Frames: 5
Frame Time: 0.033333
25.436184 34.380650 -45.787197 -179.047235 -83.021352 178.957841 -0.281079 -11.007162 8.312538 -3.690915 -1.418669 -45.926335 12.336152 9.227160 25.693307 -4.922531 0.210160 17.524607 0.000000 0.000000 0.000000 3.630726 -11.154334 6.804652 8.064475 -3.042025 -21.314457 -4.727410 1.102160 22.267918 3.525680 6.791166 8.661027 0.000000 0.000000 0.000000 1.934481 -6.385272 -2.845224 -1.083287 7.935879 -11.633691 -0.137315 -0.582584 7.695823 -0.012602 0.027441 0.010853 -0.363152 1.460537 9.113917 -6.405869 0.584672 28.874017 0.000000 0.000000 0.000000 1.384684 2.242521 5.623863 -3.492418 -5.378824 2.472316 -26.042205 41.070320 -54.276153 -10.227541 -45.202042 4.981765 0.000000 0.000000 0.000000 -3.272838 3.520081 4.677691 29.346225 16.912619 8.268969 35.228360 -10.811311 44.493737 -177.201362 68.344451 -174.217895 0.000000 0.000000 0.000000 
24.751642 34.283707 -46.263027 -179.200408 -83.761335 179.358664 -0.327625 -10.979862 8.420192 -4.994971 -1.272282 -47.056011 12.736965 10.368692 20.581225 -4.524031 0.483812 17.299155 0.000000 0.000000 0.000000 3.412854 -10.630008 7.497961 8.673605 -4.098373 -20.698636 -4.530474 -0.162924 23.207728 3.298449 6.813466 7.132643 0.000000 0.000000 0.000000 1.820732 -6.204035 -2.970872 -1.375769 7.640713 -12.107327 -0.157274 -0.570458 7.691674 -0.012659 0.000740 0.046328 -0.344634 1.472987 9.301846 -6.786236 0.937833 29.327367 0.000000 0.000000 0.000000 1.393512 2.262072 5.707791 -2.819712 -5.567740 2.314033 -19.711342 39.894681 -52.143071 -11.337852 -48.533094 6.314990 0.000000 0.000000 0.000000 -3.274237 3.503377 4.831997 30.039312 17.234823 8.423321 35.124777 -11.058012 43.682997 -178.280314 68.141266 -175.110054 0.000000 0.000000 0.000000 
23.927389 34.136543 -46.728428 -178.929660 -84.411070 179.248957 -0.464197 -11.097879 8.718683 -6.202771 -1.158480 -48.119659 13.129798 10.962213 17.267434 -4.231357 0.739519 17.022870 0.000000 0.000000 0.000000 3.233790 -10.225415 8.507504 9.118023 -5.589166 -20.238259 -3.748987 -0.337658 24.431969 2.520137 7.399841 5.584165 0.000000 0.000000 0.000000 1.657810 -6.061814 -3.037233 -1.648062 7.279112 -12.593851 -0.182169 -0.602526 7.735287 -0.001336 -0.057031 0.074255 -0.391581 1.487254 9.428179 -7.162461 1.350148 29.583660 0.000000 0.000000 0.000000 1.395847 2.224162 5.775124 -2.445248 -5.796669 2.194406 -15.030425 38.079459 -50.041193 -12.420865 -52.426476 7.410844 0.000000 0.000000 0.000000 -3.297055 3.466383 4.841815 30.452822 17.415367 8.819349 35.222179 -10.804783 43.055938 -178.647518 68.132496 -175.231536 0.000000 0.000000 0.000000 
22.932507 33.982464 -47.129715 -176.059915 -84.934222 176.880384 -0.927318 -11.373775 8.717143 -7.230914 -0.335966 -48.731788 13.460298 12.463869 13.847688 -4.148937 1.003914 19.295622 0.000000 0.000000 0.000000 3.390657 -9.933044 9.352713 8.816521 -6.267169 -19.981954 -2.950112 -1.713822 25.611802 3.467115 6.913847 4.445795 0.000000 0.000000 0.000000 1.607210 -5.950129 -3.290466 -1.775847 6.982531 -13.316348 -0.170308 -0.626800 7.735481 -0.017386 -0.095516 0.170518 -0.328258 1.466523 9.540872 -7.373910 1.883586 29.645876 0.000000 0.000000 0.000000 1.329757 2.065792 5.887530 -2.330745 -5.959491 1.907005 -12.258474 36.119550 -48.468405 -13.639177 -56.485125 8.714270 0.000000 0.000000 0.000000 -3.235435 3.358931 4.896804 30.529323 17.558538 9.080778 35.270947 -10.577545 42.948615 -178.991746 68.241171 -175.322022 0.000000 0.000000 0.000000 
21.802847 33.849350 -47.436626 -174.889576 -84.562748 176.168925 -2.271607 -11.267534 8.778484 -7.832890 1.340930 -49.169238 13.728458 13.734504 12.132144 -4.393733 1.070535 21.865664 0.000000 0.000000 0.000000 3.663184 -9.672344 10.158523 7.724095 -6.731748 -19.324627 -2.361493 -2.095237 26.712235 5.580868 8.171529 4.565533 0.000000 0.000000 0.000000 1.492750 -5.583535 -3.478598 -1.819928 6.699347 -14.142708 -0.177517 -0.672278 7.697338 -0.052010 -0.117764 0.228670 -0.353997 1.433024 9.597358 -7.708876 2.245865 29.647467 0.000000 0.000000 0.000000 1.304789 2.020686 5.946778 -2.483300 -5.737914 2.048994 -11.389293 34.290043 -46.995468 -15.181432 -60.460664 10.332706 0.000000 0.000000 0.000000 -3.167788 3.328059 4.924863 30.169000 17.795469 9.228214 35.227244 -10.456215 43.195001 -179.623812 68.424002 -175.659160 0.000000 0.000000 0.000000 
